<svg width="40" height="40" viewBox="0 0 40 40" fill="none" xmlns="http://www.w3.org/2000/svg">
<path d="M15.25 31.6668C15.25 32.081 15.5858 32.4168 16 32.4168C16.4142 32.4168 16.75 32.081 16.75 31.6668H15.25ZM16 27.9485L15.2505 27.9199C15.2502 27.9294 15.25 27.9389 15.25 27.9485H16ZM20 24.2318L19.9736 24.9814C19.9912 24.982 20.0088 24.982 20.0264 24.9814L20 24.2318ZM24 27.9485H24.75C24.75 27.9389 24.7498 27.9294 24.7495 27.9199L24 27.9485ZM23.25 31.6668C23.25 32.081 23.5858 32.4168 24 32.4168C24.4142 32.4168 24.75 32.081 24.75 31.6668H23.25ZM16 30.9168C15.5858 30.9168 15.25 31.2526 15.25 31.6668C15.25 32.081 15.5858 32.4168 16 32.4168V30.9168ZM24 32.4168C24.4142 32.4168 24.75 32.081 24.75 31.6668C24.75 31.2526 24.4142 30.9168 24 30.9168V32.4168ZM16 32.4168C16.4142 32.4168 16.75 32.081 16.75 31.6668C16.75 31.2526 16.4142 30.9168 16 30.9168V32.4168ZM15 31.6668V30.9168C14.9912 30.9168 14.9824 30.917 14.9736 30.9173L15 31.6668ZM9 26.0902H8.25C8.25 26.0996 8.25018 26.1091 8.25054 26.1186L9 26.0902ZM9.75 14.9135C9.75 14.4993 9.41421 14.1635 9 14.1635C8.58579 14.1635 8.25 14.4993 8.25 14.9135H9.75ZM4.5788 17.0079C4.23607 17.2406 4.14682 17.707 4.37944 18.0497C4.61207 18.3924 5.07848 18.4817 5.4212 18.249L4.5788 17.0079ZM9.4212 15.534C9.76393 15.3014 9.85318 14.835 9.62056 14.4923C9.38793 14.1496 8.92152 14.0603 8.5788 14.2929L9.4212 15.534ZM8.57883 14.2929C8.23609 14.5255 8.14682 14.9919 8.37942 15.3347C8.61203 15.6774 9.07844 15.7667 9.42117 15.5341L8.57883 14.2929ZM17.6933 9.01349L17.2864 8.38347C17.2816 8.38656 17.2769 8.38971 17.2722 8.39292L17.6933 9.01349ZM22.3067 9.01349L22.7278 8.39292C22.7231 8.38971 22.7184 8.38656 22.7136 8.38347L22.3067 9.01349ZM30.5788 15.5341C30.9216 15.7667 31.388 15.6774 31.6206 15.3347C31.8532 14.9919 31.7639 14.5255 31.4212 14.2929L30.5788 15.5341ZM24 30.9168C23.5858 30.9168 23.25 31.2526 23.25 31.6668C23.25 32.081 23.5858 32.4168 24 32.4168V30.9168ZM25 31.6668L25.0264 30.9173C25.0176 30.917 25.0088 30.9168 25 30.9168V31.6668ZM31 26.0902L31.7495 26.1186C31.7498 26.1091 31.75 26.0996 31.75 26.0902H31ZM31.75 14.9135C31.75 14.4993 31.4142 14.1635 31 14.1635C30.5858 14.1635 30.25 14.4993 30.25 14.9135H31.75ZM34.579 18.2475C34.9218 18.48 35.3881 18.3906 35.6207 18.0479C35.8532 17.7051 35.7638 17.2387 35.421 17.0062L34.579 18.2475ZM31.421 14.2928C31.0782 14.0603 30.6119 14.1497 30.3793 14.4925C30.1468 14.8353 30.2362 15.3016 30.579 15.5342L31.421 14.2928ZM16.75 31.6668V27.9485H15.25V31.6668H16.75ZM16.7495 27.9771C16.815 26.2607 18.257 24.9209 19.9736 24.9814L20.0264 23.4823C17.4836 23.3927 15.3477 25.3773 15.2505 27.9199L16.7495 27.9771ZM20.0264 24.9814C21.743 24.9209 23.185 26.2607 23.2505 27.9771L24.7495 27.9199C24.6523 25.3773 22.5164 23.3927 19.9736 23.4823L20.0264 24.9814ZM23.25 27.9485V31.6668H24.75V27.9485H23.25ZM16 32.4168H24V30.9168H16V32.4168ZM16 30.9168H15V32.4168H16V30.9168ZM14.9736 30.9173C12.1916 31.0153 9.85493 28.8435 9.74946 26.0617L8.25054 26.1186C8.38733 29.7266 11.418 32.5435 15.0264 32.4164L14.9736 30.9173ZM9.75 26.0902V14.9135H8.25V26.0902H9.75ZM5.4212 18.249L9.4212 15.534L8.5788 14.2929L4.5788 17.0079L5.4212 18.249ZM9.42117 15.5341L18.1145 9.63407L17.2722 8.39292L8.57883 14.2929L9.42117 15.5341ZM18.1002 9.64352C19.2566 8.89666 20.7434 8.89666 21.8998 9.64352L22.7136 8.38347C21.0618 7.31668 18.9382 7.31668 17.2864 8.38347L18.1002 9.64352ZM21.8855 9.63407L30.5788 15.5341L31.4212 14.2929L22.7278 8.39292L21.8855 9.63407ZM24 32.4168H25V30.9168H24V32.4168ZM24.9736 32.4164C28.582 32.5435 31.6127 29.7266 31.7495 26.1186L30.2505 26.0617C30.1451 28.8435 27.8084 31.0153 25.0264 30.9173L24.9736 32.4164ZM31.75 26.0902V14.9135H30.25V26.0902H31.75ZM35.421 17.0062L31.421 14.2928L30.579 15.5342L34.579 18.2475L35.421 17.0062Z" fill="#61B15A"/>
</svg>
