<svg width="26" height="27" viewBox="0 0 26 27" fill="none" xmlns="http://www.w3.org/2000/svg">
<path d="M13.0068 13.428C17.1873 13.428 20.5763 10.6459 20.5763 7.214C20.5763 3.7821 17.1873 1 13.0068 1C8.8262 1 5.43719 3.7821 5.43719 7.214C5.43719 10.6459 8.8262 13.428 13.0068 13.428Z" stroke="#61B15A" stroke-width="1.5" stroke-linecap="round" stroke-linejoin="round"/>
<path fill-rule="evenodd" clip-rule="evenodd" d="M1.00002 22.0706C0.998017 21.6338 1.11703 21.2023 1.34808 20.8088C2.07314 19.6184 4.11781 18.9874 5.81445 18.7017C7.03806 18.4874 8.27858 18.3442 9.52676 18.2732C11.8377 18.1065 14.1619 18.1065 16.4728 18.2732C17.7209 18.345 18.9613 18.4882 20.1851 18.7017C21.8818 18.9874 23.9264 19.5588 24.6515 20.8088C25.1162 21.611 25.1162 22.5422 24.6515 23.3444C23.9264 24.5944 21.8818 25.1658 20.1851 25.4396C18.963 25.6628 17.722 25.81 16.4728 25.88C14.5919 26.0109 12.7023 26.0348 10.8174 25.9514C10.3823 25.9514 9.96179 25.9514 9.52676 25.88C8.28227 25.8109 7.04605 25.6636 5.82895 25.4396C4.11781 25.1658 2.08764 24.5944 1.34808 23.3444C1.11821 22.9463 0.999315 22.5112 1.00002 22.0706Z" stroke="#61B15A" stroke-width="1.5" stroke-linecap="round" stroke-linejoin="round"/>
</svg>
